<svg width="149" height="71" viewBox="0 0 149 71" fill="none" xmlns="http://www.w3.org/2000/svg">
<path fill-rule="evenodd" clip-rule="evenodd" d="M39.4174 36.8318H34.3599C27.5005 36.8318 21.9399 42.3924 21.9399 49.2518V54.3093V56.7264C21.9399 61.5527 25.8524 65.4652 30.6786 65.4652C35.5049 65.4652 39.4174 61.5527 39.4174 56.7264V54.3093H41.8345C46.6608 54.3093 50.5733 50.3968 50.5733 45.5706C50.5733 40.7443 46.6608 36.8318 41.8345 36.8318H39.4174Z" fill="#EA6161"/>
<path d="M0 38.6912V56.7265C0 61.5528 3.91248 65.4653 8.73877 65.4653C13.5651 65.4653 17.4775 61.5528 17.4775 56.7265V38.6912C17.4775 35.3025 20.2246 32.5554 23.6133 32.5554L41.8345 32.5554C46.6608 32.5554 50.5733 28.6429 50.5733 23.8167C50.5733 18.9904 46.6608 15.0779 41.8345 15.0779L23.6133 15.0779C10.572 15.0779 0 25.6499 0 38.6912Z" fill="#F86F54"/>
<path d="M74.7171 18.6592C73.2233 17.265 71.2979 16.4682 69.2398 16.4682C67.7127 16.4682 66.2521 16.933 65.0238 17.6965C64.7583 16.8998 64.0279 16.3355 63.1316 16.3355C62.0362 16.3355 61.1399 17.1986 61.1399 18.294V31.0082C61.1399 32.1037 62.0362 33 63.1316 33C64.2271 33 65.1234 32.1037 65.1234 31.0082V24.7341C65.1234 22.3772 66.9824 20.4518 69.2398 20.4518C70.2688 20.4518 71.2647 20.8502 71.9951 21.5473C72.825 22.3108 74.0532 22.2444 74.8167 21.4477C75.5803 20.651 75.5139 19.3895 74.7171 18.6592ZM84.6685 32.9336C80.0874 32.9336 76.3362 29.2156 76.3362 24.6013C76.3362 20.0202 80.0874 16.2691 84.6685 16.2691C89.2496 16.2691 93.0008 20.0202 93.034 24.6345C93.0008 29.2156 89.2496 32.9336 84.6685 32.9336ZM84.6685 20.3522C82.3116 20.3522 80.4194 22.2444 80.4194 24.6013C80.4194 26.9583 82.3116 28.8505 84.6685 28.8505C87.0255 28.8505 88.9176 26.9583 88.9176 24.6013C88.9176 22.2444 87.0255 20.3522 84.6685 20.3522ZM103.274 16.435C101.78 16.435 100.419 16.8666 99.2243 17.6301C98.9587 16.8334 98.2284 16.2691 97.3653 16.2691C96.2698 16.2691 95.3735 17.1654 95.3735 18.2608V30.9418C95.3735 32.0373 96.2698 32.9336 97.3653 32.9336C98.4608 32.9336 99.3571 32.0373 99.3571 30.9418V25.2985C99.3571 23.0079 100.685 20.4186 103.274 20.4186C105.366 20.4186 107.092 22.3108 107.092 24.6677V30.9418C107.092 32.0373 107.955 32.9336 109.084 32.9336C110.179 32.9336 111.042 32.0373 111.042 30.9418V24.6677C111.042 20.1198 107.557 16.435 103.274 16.435ZM121.428 16.435C119.935 16.435 118.574 16.8666 117.379 17.6301C117.113 16.8334 116.383 16.2691 115.52 16.2691C114.424 16.2691 113.528 17.1654 113.528 18.2608V30.9418C113.528 32.0373 114.424 32.9336 115.52 32.9336C116.615 32.9336 117.511 32.0373 117.511 30.9418V25.2985C117.511 23.0079 118.839 20.4186 121.428 20.4186C123.52 20.4186 125.246 22.3108 125.246 24.6677V30.9418C125.246 32.0373 126.109 32.9336 127.238 32.9336C128.333 32.9336 129.196 32.0373 129.196 30.9418V24.6677C129.196 20.1198 125.711 16.435 121.428 16.435ZM144.662 16.4682C143.633 16.4682 142.736 17.3645 142.736 18.46V24.4686C142.736 26.7591 141.043 28.6513 138.952 28.6513C136.894 28.6513 135.201 26.7591 135.201 24.4686V18.5264C135.201 17.4641 134.338 16.5346 133.275 16.5346C132.213 16.5346 131.35 17.4641 131.35 18.5264V24.4686C131.35 28.9832 134.769 32.6348 138.952 32.6348C140.346 32.6348 141.641 32.2365 142.736 31.6058V32.9668C142.736 35.3901 140.811 37.3819 138.454 37.3819C137.226 37.3819 136.031 36.8176 135.201 35.8549C134.504 34.9918 133.275 34.8922 132.479 35.6225C131.682 36.3528 131.582 37.6143 132.28 38.4442C133.84 40.3032 136.064 41.3655 138.454 41.3655C142.936 41.3655 146.62 37.5811 146.62 32.9668V18.46C146.62 17.3645 145.757 16.4682 144.662 16.4682Z" fill="black"/>
<path d="M65.7744 59.2921C65.4757 59.2921 65.2433 59.0265 65.2433 58.7277C65.2433 58.6282 65.2101 58.5286 65.2101 58.429C65.2101 58.3294 65.2433 58.2298 65.2433 58.1302V40.1046C65.2433 39.0091 64.347 38.1128 63.2183 38.1128C62.1229 38.1128 61.2266 39.0091 61.2266 40.1046C61.2266 42.4948 61.2266 44.8849 61.2266 47.275V57.2007C61.2266 58.7609 61.1602 60.2216 62.156 61.5162C63.0192 62.6117 64.3802 63.3088 65.7744 63.3088C66.9031 63.3088 67.7994 62.4125 67.7994 61.2839C67.7994 60.1884 66.9031 59.2921 65.7744 59.2921ZM72.3911 43.8226C71.2293 43.8226 70.2998 42.8931 70.2998 41.7976V41.6317C70.2998 40.4698 71.2293 39.5735 72.3911 39.5735C73.4866 39.5735 74.4161 40.4698 74.4161 41.6317V41.7976C74.4161 42.8931 73.4866 43.8226 72.3911 43.8226ZM72.3911 63.3088C71.2293 63.3088 70.2998 62.3793 70.2998 61.2507V48.4369C70.2998 47.3082 71.2293 46.4119 72.3911 46.4119C73.4866 46.4119 74.4161 47.3082 74.4161 48.4369V61.2507C74.4161 62.3793 73.4866 63.3088 72.3911 63.3088ZM90.9689 59.7236L84.7944 54.0471L90.3381 50.2959C91.2344 49.632 91.4668 48.3705 90.8029 47.4742C90.1722 46.5447 88.9107 46.3455 87.9812 46.9763L81.4415 51.491V40.2706C81.4415 39.1419 80.5452 38.2456 79.4166 38.2456C78.2879 38.2456 77.3916 39.1419 77.3916 40.2706V61.4166C77.3916 62.5453 78.2879 63.4416 79.4166 63.4416C80.5452 63.4416 81.4415 62.5453 81.4415 61.4166V56.4704L88.2136 62.7113C88.6119 63.0765 89.0767 63.2424 89.5746 63.2424C90.1058 63.2424 90.6701 63.0101 91.0685 62.6117C91.832 61.7486 91.7656 60.4872 90.9689 59.7236ZM108.024 54.9102C108.157 54.5782 108.29 54.2462 108.29 53.9475C108.356 52.852 107.759 51.6237 107.228 50.6942C106.032 48.7025 104.107 47.3082 101.85 46.8767C101.352 46.7771 100.887 46.7439 100.389 46.7439C95.7748 46.7439 92.09 50.5283 92.09 55.0762C92.09 59.6904 95.7748 63.4084 100.389 63.4084C102.281 63.4084 104.837 62.8109 106.663 61.0515C107.46 60.288 107.493 58.9933 106.696 58.2298C105.933 57.4331 104.671 57.4331 103.875 58.1966C103.012 59.0265 101.451 59.4581 100.389 59.4581C98.3309 59.4581 96.6379 57.9974 96.1732 56.1052H106.398C107.194 56.1052 107.759 55.5409 108.024 54.9102ZM100.389 50.7606C101.883 50.7606 103.111 51.491 103.775 52.7524H96.7375C97.5342 51.5242 98.8621 50.7606 100.389 50.7606ZM116.044 63.3752C113.919 63.3752 111.795 62.5121 110.699 61.483C109.902 60.7527 109.836 59.4913 110.6 58.6946C111.33 57.8646 112.591 57.8314 113.388 58.5618C113.986 59.1261 116.21 59.8896 117.471 59.0597C117.803 58.8605 118.002 58.4954 118.002 58.1302C118.002 57.6655 117.604 57.3335 117.272 57.2007C116.973 57.0347 116.442 57.0347 115.845 57.0347C115.048 57.0347 114.152 57.0015 113.222 56.6696C111.496 56.1052 110.102 54.3126 109.969 52.5864C109.803 50.4951 110.699 49.2004 111.463 48.4701C113.122 46.9431 115.546 46.7107 117.305 47.0095C118.633 47.2418 119.629 47.7066 120.459 48.4701C121.256 49.2004 121.322 50.4619 120.592 51.2586C120.16 51.7233 119.529 51.9557 118.899 51.8893C118.6 51.8561 118.301 51.7565 118.036 51.5905C117.571 51.2586 117.239 51.0262 116.641 50.9266C115.645 50.7606 113.786 50.827 113.919 52.2545C113.952 52.4205 114.251 52.852 114.517 52.9516C114.849 53.0512 115.347 53.0512 115.878 53.0512C116.741 53.0844 117.836 53.0844 118.932 53.5823C120.758 54.4122 121.953 56.2048 121.953 58.1302C121.953 59.8232 121.09 61.4166 119.662 62.3793C118.533 63.1097 117.305 63.3752 116.044 63.3752Z" fill="black"/>
</svg>
